<svg xmlns="http://www.w3.org/2000/svg" viewBox="0 0 160 120" role="img" aria-label="Chain snatching case illustration">
  <defs>
    <linearGradient id="csBg" x1="0" y1="0" x2="1" y2="1">
      <stop offset="0%" stop-color="#e8f7f6"/>
      <stop offset="100%" stop-color="#d2ebea"/>
    </linearGradient>
  </defs>
  <rect width="160" height="120" rx="16" fill="url(#csBg)"/>
  <circle cx="118" cy="38" r="18" fill="#fff" stroke="#1f8a8a" stroke-width="3"/>
  <path d="M110 38h16M118 30v16" stroke="#1f8a8a" stroke-width="3" stroke-linecap="round"/>
  <path d="M28 78c8-18 24-28 40-28 10 0 18 4 24 10" fill="none" stroke="#0d1b2a" stroke-width="5" stroke-linecap="round"/>
  <path d="M52 52c6-2 12 2 14 8 2 6-2 12-8 14" fill="none" stroke="#c9a227" stroke-width="4" stroke-linecap="round"/>
  <circle cx="48" cy="50" r="4" fill="#c9a227"/>
  <circle cx="66" cy="72" r="4" fill="#c9a227"/>
  <path d="M86 62l22 8-8 12-18-10z" fill="#17324d"/>
  <path d="M102 78c8 4 14 12 16 22" fill="none" stroke="#155e5e" stroke-width="3" stroke-linecap="round" stroke-dasharray="3 4"/>
</svg>
